<?xml version="1.0" encoding="UTF-8" standalone="no"?>
<!DOCTYPE svg PUBLIC "-//W3C//DTD SVG 1.1//EN" "http://www.w3.org/Graphics/SVG/1.1/DTD/svg11.dtd">
<svg width="100%" height="100%" viewBox="0 0 200 200" version="1.1" xmlns="http://www.w3.org/2000/svg" xmlns:xlink="http://www.w3.org/1999/xlink" xml:space="preserve" xmlns:serif="http://www.serif.com/" style="fill-rule:evenodd;clip-rule:evenodd;stroke-linejoin:round;stroke-miterlimit:2;">
    <g id="_1225-C" serif:id="1225 C">
        <path id="Outer" d="M200,27.331C200,12.247 187.753,0 172.669,0L27.331,0C12.247,0 0,12.247 0,27.331L0,172.669C0,187.753 12.247,200 27.331,200L172.669,200C187.753,200 200,187.753 200,172.669L200,27.331ZM185,38.231C185,20.142 179.858,15 161.769,15L38.231,15C20.669,15 15,20.669 15,38.231L15,161.769C15,179.858 20.142,185 38.231,185L161.769,185C179.683,185 185,179.683 185,161.769L185,38.231Z" style="fill:rgb(255,200,69);"/>
        <g id="_4" serif:id="4" transform="matrix(1.83401e-17,0.299517,-1.17096,7.17008e-17,137.178,92.1341)">
            <path d="M147,61.5C147,56.809 132.11,53 113.769,53L84.231,53C65.89,53 51,56.809 51,61.5C51,66.191 65.89,70 84.231,70L113.769,70C132.11,70 147,66.191 147,61.5Z" style="fill:rgb(255,200,69);"/>
        </g>
        <g id="_3" serif:id="3" transform="matrix(5.71366e-17,0.933111,-1.43118,8.76343e-17,188.017,27.3602)">
            <path d="M109.074,53L64.037,53C60.778,53 56.974,53.479 54.967,56.617C53.197,59.386 51.528,66.478 56.089,68.224C58.624,69.195 61.322,70 64.037,70L109.074,70C118.568,70.087 123.522,75.523 124.129,76.257C126.245,78.816 130.256,85.355 138.69,83.576C145.069,82.23 146.822,74.582 142.944,68.224C136.539,57.719 126.155,52.924 109.074,53Z" style="fill:rgb(255,200,69);"/>
        </g>
        <g id="_2" serif:id="2" transform="matrix(1.22111,0,0,1.43118,-20.8897,-0.90354)">
            <path d="M147,61.5C147,56.809 142.536,53 137.038,53L60.962,53C55.464,53 51,56.809 51,61.5C51,66.191 55.464,70 60.962,70L137.038,70C142.536,70 147,66.191 147,61.5Z" style="fill:rgb(255,200,69);"/>
        </g>
        <g id="_1" serif:id="1" transform="matrix(0.933111,0,0,1.43118,7.62199,-38.5045)">
            <path d="M147,61.5C147,56.809 141.158,53 133.963,53L64.037,53C56.842,53 51,56.809 51,61.5C51,66.191 56.842,70 64.037,70L133.963,70C141.158,70 147,66.191 147,61.5Z" style="fill:rgb(255,200,69);"/>
        </g>
    </g>
</svg>
